<svg id="Layer_1" data-name="Layer 1" xmlns="http://www.w3.org/2000/svg" width="254" height="170.8" viewBox="0 0 254 170.8"><title>Artboard 1</title><path d="M2.9,121.7H4.5v1.2H0v-1.2H1.6V111.4H0v-1.2H3.5l4.6,10.7,5-10.7h3.5v1.2H14.9v10.2h1.6v1.2H12.1v-1.2h1.6v-9.8L8.5,122.8h-1L2.9,111.9Z" fill="#90c2b3"/><path d="M29.9,119.6v3.2H21v-1.2h1.6V111.4H21v-1.2h8.9v3.2H28.6v-2.1H23.9V116h4.9v1H23.9v4.7h4.7v-2.1Z" fill="#90c2b3"/><path d="M45.2,122.8H42.7l-3.9-5.4h.5a4.9,4.9,0,0,0,2.7-.5,3,3,0,0,0,1.4-2.5,3,3,0,0,0-1-2.3,3.3,3.3,0,0,0-2.5-.7H37.5v10.2H39v1.2H34.6v-1.2h1.6V111.4H34.6v-1.2H40a4.5,4.5,0,0,1,3.2.9,4.1,4.1,0,0,1,1.4,3.2,3.8,3.8,0,0,1-3.8,3.9l2.6,3.4h1.7Z" fill="#90c2b3"/><path d="M60.4,113.3a5.2,5.2,0,0,0-4.3-2.1,5.2,5.2,0,0,0-5.3,5.2,5.3,5.3,0,0,0,9.7,3.1h1.4a6.4,6.4,0,0,1-5.8,3.5,6.7,6.7,0,0,1-4.6-1.9,6.5,6.5,0,0,1-1.9-4.7,6.7,6.7,0,0,1,2-4.7,6.4,6.4,0,0,1,4.6-1.8,5.7,5.7,0,0,1,4.3,1.8v-1.5h1.2v3.1Z" fill="#90c2b3"/><path d="M76.1,118.7a4.4,4.4,0,0,1-1,3.1,4.1,4.1,0,0,1-3.1,1.3,4.1,4.1,0,0,1-3.1-1.3,4.4,4.4,0,0,1-1-3.3v-7.1H66.3v-1.2h4.4v1.2H69.2v6.9a3.9,3.9,0,0,0,.5,2.3,2.9,2.9,0,0,0,4.5.1,3.7,3.7,0,0,0,.7-2.5v-7H73.3v-1.2h4.4v1.2H76.1Z" fill="#90c2b3"/><path d="M92.9,122.8H90.4l-3.9-5.4H87a4.9,4.9,0,0,0,2.7-.5,3,3,0,0,0,1.4-2.5,3,3,0,0,0-1-2.3,3.3,3.3,0,0,0-2.5-.7H85.2v10.2h1.5v1.2H82.3v-1.2h1.6V111.4H82.3v-1.2h5.4a4.5,4.5,0,0,1,3.2.9,4.1,4.1,0,0,1,1.4,3.2,3.8,3.8,0,0,1-3.8,3.9l2.6,3.4h1.7Z" fill="#90c2b3"/><path d="M100.1,121.7h1.6v1.2H97.3v-1.2h1.6V111.4H97.3v-1.2h4.5v1.2h-1.6Z" fill="#90c2b3"/><path d="M115.6,122.8v-1.2h1.6l-1.3-2.9h-5.8l-1.3,2.9h1.6v1.2h-4.5v-1.2h1.6l4.6-10.2h-1.7v-1.2h3.3l4.9,11.4h1.6v1.2Zm-2.5-11.1-2.6,6.1h5.1Z" fill="#90c2b3"/><path d="M132.6,119.6v3.2h-8.3v-1.2H126V111.4h-1.6v-1.2h4.5v1.2h-1.6v10.2h4.1v-2.1Z" fill="#90c2b3"/><path d="M152.4,113.3a2.4,2.4,0,0,0-2.5-2.2,2.3,2.3,0,0,0-2.4,2.2,2.2,2.2,0,0,0,.8,1.7,5.7,5.7,0,0,0,2.1.7,5.5,5.5,0,0,1,2.5,1.1,3.3,3.3,0,0,1,1.2,2.6,3.3,3.3,0,0,1-.7,2.3,3.7,3.7,0,0,1-3.1,1.5,3.3,3.3,0,0,1-2.9-1.5v1.2h-1.1v-3.4h1.1a2.7,2.7,0,0,0,2.8,2.5,2.5,2.5,0,0,0,2.6-2.5c0-1.8-1.4-2.3-2.9-2.6a6.5,6.5,0,0,1-2.4-.9,3.2,3.2,0,0,1-1.3-2.6,3.2,3.2,0,0,1,.7-2,3.7,3.7,0,0,1,3-1.4,2.7,2.7,0,0,1,2.5,1.4v-1h1.1v3Z" fill="#90c2b3"/><path d="M168.5,118.7a4.4,4.4,0,0,1-1,3.1,4.3,4.3,0,0,1-6.2,0,4.4,4.4,0,0,1-1-3.3v-7.1h-1.6v-1.2h4.4v1.2h-1.5v6.9a3.9,3.9,0,0,0,.5,2.3,2.9,2.9,0,0,0,4.5.1,3.7,3.7,0,0,0,.7-2.5v-7h-1.5v-1.2h4.4v1.2h-1.6Z" fill="#90c2b3"/><path d="M177.6,121.7h1.6v1.2h-4.5v-1.2h1.6V111.4h-1.6v-1.2h5.1a4.8,4.8,0,0,1,2.9.8,3.7,3.7,0,0,1,1.4,3,3.8,3.8,0,0,1-1.2,2.8,3.9,3.9,0,0,1-3,1h-2.4Zm2.3-5a3,3,0,0,0,2.1-.6,2.6,2.6,0,0,0,1-2.1,2.6,2.6,0,0,0-1-2,3.1,3.1,0,0,0-2.1-.6h-2.3v5.3Z" fill="#90c2b3"/><path d="M197.5,119.6v3.2h-8.9v-1.2h1.6V111.4h-1.6v-1.2h8.9v3.2h-1.3v-2.1h-4.7V116h4.9v1h-4.9v4.7h4.7v-2.1Z" fill="#90c2b3"/><path d="M212.8,122.8h-2.4l-3.9-5.4h.5a4.9,4.9,0,0,0,2.7-.5,3,3,0,0,0,1.4-2.5,3,3,0,0,0-1-2.3,3.3,3.3,0,0,0-2.5-.7h-2.5v10.2h1.5v1.2h-4.4v-1.2h1.6V111.4h-1.6v-1.2h5.4a4.5,4.5,0,0,1,3.2.9,4.1,4.1,0,0,1,1.4,3.2,3.8,3.8,0,0,1-3.8,3.9l2.6,3.4h1.7Z" fill="#90c2b3"/><path d="M220,121.7h1.6v1.2h-4.5v-1.2h1.6V111.4h-1.6v-1.2H226v3.3h-1.3v-2.1H220V116h4.8v1H220Z" fill="#90c2b3"/><path d="M239,119.6v3.2h-8.3v-1.2h1.6V111.4h-1.6v-1.2h4.5v1.2h-1.6v10.2h4.1v-2.1Z" fill="#90c2b3"/><path d="M248.9,121.7h1.6v1.2H246v-1.2h1.6v-3.1l-3.8-7.2h-1.5v-1.2h4.4v1.2h-1.5l3.1,6,3-6h-1.6v-1.2H254v1.2h-1.5l-3.6,7.2Z" fill="#90c2b3"/><path d="M106.6,144.8c-4.9,5.8-9.6,12.9-9.7,18.2a6.3,6.3,0,0,0,2.2,5.1,10.5,10.5,0,0,0,7.1,2.6c3.5,0,7.1-1.4,9.8-2.5,4.6-1.9,56-24.1,56-24.1s.4-.6-.2-.4l-55.9,15.1a12.3,12.3,0,0,1-3.2.5c-4.3,0-8.1-2.3-8-7.3a16.4,16.4,0,0,1,2-7.1Z" fill="#f1f1f1" fill-rule="evenodd"/><path d="M112.4,68.8a1.7,1.7,0,0,1-1.7-1.7h-7.5a31.9,31.9,0,0,1-21,11.4.9.9,0,0,1,.1.3.9.9,0,0,1-1.9,0v-.2h-1c-17.1,0-32.1-15.1-32.1-33.7S61.6,11.6,79.7,11.6c14.1,0,21.9,9.3,24.5,12.2h15.3A43.9,43.9,0,0,0,106,8.5,46.3,46.3,0,0,0,79.5,0,44.6,44.6,0,0,0,34.7,42a1.5,1.5,0,0,1-.1,3A45.6,45.6,0,0,0,41,68a.8.8,0,0,1,.7-.4.8.8,0,0,1,.8.8.8.8,0,0,1-.7.8,44.7,44.7,0,0,0,77.1-2.1h-4.8A1.7,1.7,0,0,1,112.4,68.8ZM112,19.2a.8.8,0,1,1-.8.8A.8.8,0,0,1,112,19.2Zm-6.1-.3a1.1,1.1,0,1,1-1.1,1.1A1.1,1.1,0,0,1,105.8,18.9Zm-5.9-8.8a1.2,1.2,0,1,1-1.2,1.2A1.2,1.2,0,0,1,99.9,10.1Zm-6,2.5a.8.8,0,1,1-.8.8A.8.8,0,0,1,93.9,12.6ZM90.5,3.7a.7.7,0,1,1-.7.7A.7.7,0,0,1,90.5,3.7ZM77,5.6a1.9,1.9,0,1,1-1.9,1.9A1.9,1.9,0,0,1,77,5.6ZM69.3,2.3a.7.7,0,1,1-.7.7A.7.7,0,0,1,69.3,2.3ZM60.5,4.4a.8.8,0,1,1-.8.8A.8.8,0,0,1,60.5,4.4Zm0,5.2a1.1,1.1,0,1,1-1.1,1.1A1.1,1.1,0,0,1,60.5,9.6Zm-10,3.9a1.1,1.1,0,1,1-1.1,1.1A1.1,1.1,0,0,1,50.5,13.5Zm-.7,7.8a1.2,1.2,0,1,1-1.2,1.2A1.2,1.2,0,0,1,49.8,21.4ZM37,55.6a.8.8,0,1,1,.8-.8A.8.8,0,0,1,37,55.6ZM38,33.4a1,1,0,1,1,1,1A1,1,0,0,1,38,33.4Zm1.3,17.2a1,1,0,1,1,1-1A1,1,0,0,1,39.4,50.6Zm6.2,10.7a1.7,1.7,0,1,1,1.7-1.7A1.7,1.7,0,0,1,45.5,61.3ZM46.4,37a.9.9,0,1,1,.9-.9A.9.9,0,0,1,46.4,37Zm6.8,36.2a.8.8,0,1,1,.8-.8A.8.8,0,0,1,53.2,73.2ZM63,78.6a.9.9,0,1,1,.9-.9A.9.9,0,0,1,63,78.6Zm10.8,5.2a1.4,1.4,0,1,1,1.4-1.4A1.4,1.4,0,0,1,73.8,83.8Zm4,4.6a.6.6,0,1,1,.6-.6A.6.6,0,0,1,77.8,88.3Zm15.4-.9a1.5,1.5,0,1,1,1.5-1.5A1.5,1.5,0,0,1,93.2,87.4Zm8.6-6.1a1,1,0,1,1,1-1A1,1,0,0,1,101.8,81.3Z" fill="#f1f1f1"/><path d="M178.9,29.5a32.6,32.6,0,0,0-1.6-10.1H177a1.1,1.1,0,0,1-.4-2.1,24.6,24.6,0,0,0-5.6-8.4c-4.6-4.4-10.9-7.3-23.2-7.3H135.8a1.6,1.6,0,1,1-2.7,0H120.9V13.9h.1a1.4,1.4,0,0,1,0,2.8h-.1V46a.7.7,0,0,1,0,1.4V88.7h12.7V62.4h0a.7.7,0,1,1,0-1.5h0V53.9a1.2,1.2,0,1,1,0-2.4V48.3h.2l28.7,40.3h15.9L154,56.2C159.7,56.2,178.9,52.6,178.9,29.5Zm-6.6,12.6a1.3,1.3,0,1,1-1.3,1.3A1.3,1.3,0,0,1,172.4,42.1ZM122.6,60.4a.8.8,0,1,1,.8-.8A.8.8,0,0,1,122.6,60.4Zm0-28.2a.8.8,0,1,1,.8-.8A.8.8,0,0,1,122.6,32.3Zm2.5,46.3a.8.8,0,1,1,.8-.8A.8.8,0,0,1,125.1,78.5Zm2.1-47.1a1.2,1.2,0,1,1,1.2-1.2A1.2,1.2,0,0,1,127.3,31.5Zm1.9,55.1a.9.9,0,1,1,.9-.9A.9.9,0,0,1,129.2,86.6Zm1.4-73.7a.8.8,0,1,1,.8-.8A.8.8,0,0,1,130.5,12.9Zm30.9,64a.8.8,0,1,1-.8.8A.8.8,0,0,1,161.4,76.9ZM157,64.2a1.5,1.5,0,1,1-1.5,1.5A1.5,1.5,0,0,1,157,64.2ZM155.2,47a.8.8,0,1,1,.8-.8A.8.8,0,0,1,155.2,47Zm13.7-18.2a.9.9,0,1,1-.9-.9A.9.9,0,0,1,168.9,28.8Zm-2.4-16.3a.9.9,0,1,1-.9.9A.9.9,0,0,1,166.5,12.5Zm-5.3-7.9a.7.7,0,1,1-.7.7A.7.7,0,0,1,161.2,4.6Zm-14.7,3a1.7,1.7,0,1,1-1.7,1.7A1.7,1.7,0,0,1,146.5,7.6Zm-13,39V13.3H147c6.1,0,10.5,1.6,13.5,4.1a1.2,1.2,0,0,1,1-.6,1.3,1.3,0,0,1,1.3,1.3,1.2,1.2,0,0,1-.5,1,15.7,15.7,0,0,1,4,10.5c0,16.8-18.8,17.1-24,17.1Zm9.6,6.1a1.1,1.1,0,1,1,1.1-1.1A1.1,1.1,0,0,1,143.2,52.7Z" fill="#f1f1f1"/><path d="M181.3,1.6V4.8h6.9a1,1,0,0,1,1.9,0h33.6l-13.9,30a1.1,1.1,0,0,1,.6.9,1.1,1.1,0,0,1-1.1,1.1h-.4L185,88.7h3.6l8.8-19.1a1.1,1.1,0,0,1,.4-2.2l.6.2,29-62.7V1.6Zm19.2,2.4a1,1,0,1,1,1-1A1,1,0,0,1,200.5,4.1ZM217.9,21a.7.7,0,1,1,.7-.7A.7.7,0,0,1,217.9,21Z" fill="#f1f1f1"/></svg>